<?xml version="1.0" encoding="UTF-8"?>
<svg width="200px" height="200px" viewBox="0 0 200 200" version="1.1" xmlns="http://www.w3.org/2000/svg" xmlns:xlink="http://www.w3.org/1999/xlink">
    <!-- Generator: Sketch 54.1 (76490) - https://sketchapp.com -->
    <title>grinnell</title>
    <desc>Created with Sketch.</desc>
    <g id="grinnell" stroke="none" stroke-width="1" fill="none" fill-rule="evenodd">
        <g id="grinnell_BGL">
            <g id="grinnell" transform="translate(-1.000000, 0.000000)">
                <g fill-rule="nonzero" id="Shape">
                    <path d="M15.7463415,0 L184.234146,0 C184.409756,0.917073171 183.629268,1.24878049 183.180488,1.89268293 C176.17561,11.9609756 169.482927,22.2439024 162.439024,32.2731707 C160.780488,32.4292683 159.180488,33.0926829 158.068293,34.3804878 C156.312195,36.3707317 156.487805,39.7853659 158.380488,41.6195122 C160.643902,43.804878 164.780488,43.5707317 166.75122,41.1317073 C167.531707,40.1756098 167.82439,39.0243902 167.882927,37.8146341 C178.653659,30.6536585 189.131707,22.9853659 200,15.9804878 L200.156098,15.8829268 L200.156098,183.473171 C199.239024,183.414634 198.84878,182.790244 198.126829,182.321951 C189.385366,176.331707 180.487805,170.614634 171.765854,164.585366 C170.57561,163.765854 169.131707,163.02439 168.156098,161.95122 C167.336585,161.073171 167.64878,159.726829 167.063415,158.75122 C166.380488,157.560976 165.190244,156.663415 163.863415,156.312195 C162.263415,155.863415 160.44878,156.214634 159.082927,157.15122 C157.990244,157.912195 157.268293,159.082927 157.014634,160.370732 C156.585366,162.57561 157.482927,164.97561 159.37561,166.204878 C160.273171,166.809756 161.326829,167.082927 162.4,167.121951 C169.092683,177.112195 176.195122,186.829268 182.731707,196.917073 C183.258537,197.736585 183.785366,198.556098 184.292683,199.395122 L15.9804878,199.395122 C16,198.907317 16.0780488,198.556098 16.3512195,198.146341 C23.5317073,187.82439 30.7902439,177.541463 37.7170732,167.02439 C39.297561,166.985366 40.7609756,166.497561 41.8341463,165.307317 C43.6682927,163.356098 43.8243902,160.156098 42.0878049,158.087805 C40.1170732,155.726829 36.2146341,155.609756 33.9707317,157.658537 C32.9170732,158.614634 32.3902439,159.941463 32.3317073,161.346341 C32.3512195,161.678049 32.0195122,161.736585 31.804878,161.912195 C21.1317073,169.014634 10.7512195,176.604878 0,183.55122 L0,15.9414634 C0.936585366,15.9609756 1.30731707,16.6243902 2.02926829,17.0926829 C12.0780488,23.9219512 22.1073171,30.8878049 32.1756098,37.7170732 C32.2731707,37.7756098 32.3317073,37.8926829 32.3317073,38.0487805 C32.3902439,39.2585366 32.8,40.4097561 33.6195122,41.3268293 C35.5707317,43.4731707 39.2585366,43.7463415 41.502439,41.9121951 C43.4731707,40.3317073 43.9414634,37.1902439 42.595122,35.0634146 C41.5609756,33.3658537 39.6878049,32.4292683 37.7365854,32.2731707 C30.8292683,22.0487805 23.6878049,11.9609756 16.8195122,1.69756098 C16.4682927,1.13170732 16.097561,0.585365854 15.7463415,0 Z" fill="#000000"></path>
                    <path d="M39.395122,10.9658537 C78.7317073,10.9853659 118.107317,10.9658537 157.463415,10.9658537 C158.634146,10.9658537 159.804878,10.9853659 160.97561,10.9658537 C160.858537,11.3365854 160.663415,11.6487805 160.468293,11.9804878 C153.970732,23.3560976 147.219512,34.6341463 140.565854,45.9317073 C140.468293,46.0878049 140.390244,46.2634146 140.312195,46.4390244 C144.702439,51.3170732 149.521951,55.7268293 154.165854,60.3707317 C165.912195,53.6585366 177.443902,46.4780488 189.326829,39.9804878 C189.385366,40.5073171 189.346341,41.0341463 189.346341,41.5609756 C189.346341,80.8195122 189.346341,120.058537 189.346341,159.317073 C188.780488,159.395122 188.234146,159.043902 187.746341,158.770732 C176.565854,152.253659 165.502439,145.560976 154.321951,139.02439 C149.346341,143.239024 144.780488,148.17561 140.312195,152.819512 C140.565854,153.326829 140.858537,153.795122 141.131707,154.263415 C147.570732,165.404878 154.243902,176.331707 160.546341,187.512195 C160.721951,187.804878 160.878049,188.078049 160.97561,188.390244 C160.058537,188.370732 159.141463,188.390244 158.243902,188.370732 C119.02439,188.370732 79.804878,188.370732 40.5853659,188.370732 C40.1365854,188.370732 39.7073171,188.390244 39.2585366,188.331707 C39.3560976,187.453659 39.9414634,187.004878 40.3707317,186.282927 C46.6146341,175.453659 52.9365854,164.643902 59.3560976,153.912195 C59.5512195,153.6 59.7463415,153.268293 59.902439,152.936585 C55.5707317,147.980488 50.8487805,143.492683 46.0487805,138.985366 C34.2829268,145.678049 22.7512195,152.839024 10.9073171,159.37561 C10.8292683,158.790244 10.8878049,158.204878 10.8682927,157.6 C10.8682927,118.419512 10.8682927,79.2195122 10.8682927,40.0390244 C11.6878049,40.0195122 12.2731707,40.4487805 12.9560976,40.8585366 C23.9219512,47.3365854 34.9463415,53.7756098 45.8926829,60.3121951 C50.7512195,55.9414634 55.3170732,51.1609756 59.902439,46.5170732 C59.7073171,46.0487805 59.4341463,45.6195122 59.1804878,45.1707317 C52.8390244,34.0487805 45.8926829,23.0634146 39.8243902,11.8439024 C39.6487805,11.5902439 39.4536585,11.3170732 39.395122,10.9658537 Z" fill="#FFFFFF"></path>
                    <path d="M50.4,19.4146341 C54.5560976,19.3756098 58.6926829,19.395122 62.8292683,19.297561 C91.5121951,19.1609756 120.195122,19.3365854 148.878049,19.2585366 C149.131707,19.297561 149.697561,19.1609756 149.77561,19.5121951 C149.619512,20.1365854 149.131707,20.6439024 148.760976,21.1707317 C142.517073,30.204878 136.292683,39.2585366 130.04878,48.2926829 C129.873171,48.5658537 130.04878,48.7219512 130.22439,48.9170732 C137.268293,56.3512195 144.741463,63.5512195 152,70.7902439 C152.526829,70.497561 152.995122,70.1268293 153.482927,69.795122 C162.673171,63.4146341 171.668293,56.5268293 181.014634,50.4195122 C181.034146,51.0439024 181.034146,51.6878049 181.034146,52.3121951 C181.034146,84.5073171 181.034146,116.702439 181.034146,148.897561 C180.234146,148.936585 179.843902,148.429268 179.239024,148 C170.243902,141.521951 161.15122,135.160976 152.17561,128.663415 C151.687805,129.053659 151.258537,129.521951 150.790244,129.931707 C143.726829,136.62439 137.034146,143.55122 130.146341,150.439024 C129.912195,150.673171 129.892683,150.790244 130.087805,151.082927 C136.526829,160.819512 143.531707,170.243902 149.834146,180.078049 C149.639024,180.117073 149.463415,180.156098 149.268293,180.156098 C116.682927,180.156098 84.097561,180.156098 51.5121951,180.156098 C51.2195122,180.117073 50.5170732,180.292683 50.4390244,179.921951 C50.595122,179.258537 51.0634146,178.809756 51.4536585,178.263415 C57.4634146,169.580488 63.4146341,160.858537 69.4439024,152.17561 C69.7560976,151.726829 70.0682927,151.317073 70.3219512,150.829268 C63.1804878,143.278049 55.6097561,136 48.2146341,128.62439 L47.8829268,128.839024 C38.2439024,135.434146 28.9365854,142.595122 19.2,148.995122 C19.1804878,147.980488 19.1804878,146.946341 19.1804878,145.931707 C19.1804878,114.712195 19.1804878,83.4926829 19.1804878,52.2731707 C19.1804878,51.6487805 19.1609756,51.0439024 19.2195122,50.4195122 C19.5512195,50.4585366 19.8439024,50.497561 20.1170732,50.7121951 C21.1902439,51.6097561 22.3414634,52.3707317 23.4926829,53.1902439 C31.6682927,59.0439024 39.9219512,64.8 48.0390244,70.7317073 C49.0926829,69.8731707 50.0292683,68.8585366 51.0439024,67.9414634 C57.2487805,61.9707317 63.2390244,55.804878 69.3073171,49.7170732 C69.6780488,49.3463415 70.0682927,49.0146341 70.3414634,48.5658537 C63.8634146,38.9853659 57.2878049,29.4439024 50.6341463,19.9804878 C50.4780488,19.804878 50.302439,19.6682927 50.4,19.4146341 Z" fill="#EE2D24"></path>
                    <path d="M112.585366,51.902439 C117.931707,53.0926829 123.02439,55.3170732 127.570732,58.3804878 C132.331707,61.5804878 136.35122,65.5219512 140.136585,69.8146341 C140.643902,70.4 141.190244,70.9658537 141.697561,71.5707317 C141.853659,71.804878 141.814634,72 141.6,72.1560976 C140.273171,73.3658537 138.692683,74.3414634 137.24878,75.4146341 C133.326829,78.2634146 129.326829,81.0146341 125.443902,83.9219512 C125.209756,84.0780488 124.878049,84.4682927 124.604878,84.1560976 C122.22439,81.6195122 119.82439,78.9853659 117.053659,76.8780488 C115.258537,75.5121951 113.287805,74.3804878 111.180488,73.6 C108.195122,72.4682927 105.014634,72.0585366 101.834146,72.1170732 C98.204878,72.1365854 94.4780488,72.7804878 91.1219512,74.2243902 C86.3804878,76.2341463 82.5170732,79.8243902 79.8829268,84.2146341 C77.4829268,88.2926829 76.2146341,93.0926829 75.8634146,97.7756098 C75.6292683,100.897561 75.8634146,104.078049 76.5073171,107.141463 C77.5414634,111.843902 79.6097561,116.273171 82.8878049,119.82439 C86.2243902,123.473171 90.7121951,126.068293 95.4926829,127.297561 C98.8878049,128.17561 102.341463,128.331707 105.834146,128.039024 C109.580488,127.629268 113.443902,126.458537 116.370732,124.019512 C118.731707,122.087805 120.331707,119.278049 120.663415,116.214634 C114.165854,115.863415 107.590244,116.117073 101.053659,116.058537 C100.546341,116.039024 99.9804878,116.117073 99.4926829,115.980488 C99.5512195,109.131707 99.5121951,102.243902 99.5121951,95.395122 C99.902439,95.3170732 100.273171,95.3365854 100.663415,95.3365854 C115.570732,95.3365854 130.478049,95.3365854 145.365854,95.3365854 C145.658537,95.3756098 145.560976,95.9804878 145.580488,96.195122 C145.6,103.746341 144.97561,111.492683 142.946341,118.809756 C141.268293,124.917073 138.614634,130.692683 134.57561,135.609756 C130.243902,140.897561 124.409756,144.956098 118.009756,147.297561 C113.053659,149.073171 107.863415,149.931707 102.595122,150.126829 C91.0439024,150.517073 79.1414634,147.02439 69.8731707,140.039024 C63.297561,135.082927 58.1268293,128.370732 54.9073171,120.8 C53.0536585,116.429268 51.7463415,111.843902 51.2585366,107.121951 C50.6341463,100.936585 50.9853659,94.6536585 52.2731707,88.5853659 C53.6390244,82.0682927 56.5268293,76 60.4682927,70.6536585 C65.3268293,64.0585366 71.8439024,58.7317073 79.2780488,55.3170732 C84.5268293,52.897561 90.204878,51.4536585 95.9609756,50.9268293 C101.521951,50.4390244 107.180488,50.6926829 112.585366,51.902439 Z" fill="#FFFFFF"></path>
                    <path d="M113.580488,57.3073171 C117.365854,58.4 120.956098,60.1170732 124.214634,62.3219512 C127.863415,64.7609756 131.004878,67.6682927 134.107317,70.7707317 C134.204878,70.8878049 134.302439,71.0243902 134.4,71.1414634 C131.921951,72.9756098 129.404878,74.7707317 126.926829,76.604878 C126.439024,76.9365854 126.009756,77.3658537 125.482927,77.6390244 C122.185366,74.204878 118.22439,70.9853659 113.77561,69.1902439 C110.22439,67.7463415 106.458537,67.1414634 102.634146,67.102439 C97.9902439,67.0829268 93.2682927,67.902439 88.995122,69.697561 C82.7902439,72.3317073 77.697561,77.1902439 74.5756098,83.1414634 C71.6878049,88.604878 70.5170732,94.7512195 70.7512195,100.878049 C71.0243902,107.219512 72.5268293,113.463415 75.8439024,118.926829 C78.595122,123.492683 82.6146341,127.239024 87.3560976,129.658537 C92.3121951,132.214634 98.0878049,133.365854 103.64878,133.365854 C108.195122,133.346341 112.858537,132.370732 116.8,130.009756 C119.64878,128.312195 122.029268,125.892683 123.590244,122.985366 C125.541463,119.434146 126.282927,115.219512 126.146341,111.2 C118.946341,110.868293 111.765854,111.180488 104.565854,111.063415 C104.546341,107.804878 104.565854,104.546341 104.546341,101.287805 C104.546341,100.97561 104.546341,100.663415 104.585366,100.35122 C116.097561,100.390244 127.609756,100.35122 139.121951,100.370732 C139.609756,100.390244 140.136585,100.312195 140.604878,100.429268 C140.370732,104.390244 140.039024,108.312195 139.297561,112.214634 C138.009756,119.121951 135.629268,125.912195 131.356098,131.55122 C127.726829,136.390244 122.712195,140.058537 117.053659,142.204878 C110.263415,144.839024 102.634146,145.541463 95.4341463,144.741463 C88.195122,143.941463 81.1512195,141.482927 75.0829268,137.404878 C69.3463415,133.580488 64.5658537,128.390244 61.2682927,122.341463 C57.8536585,116.136585 56.0585366,109.112195 55.9609756,102.029268 C55.8634146,95.1219512 57.0926829,88.0585366 59.8829268,81.7170732 C62.8878049,74.9073171 67.6682927,68.897561 73.6780488,64.4682927 C79.7073171,60 86.8487805,57.2292683 94.2634146,56.195122 C100.604878,55.3560976 107.395122,55.5121951 113.580488,57.3073171 Z" fill="#000000"></path>
                </g>
            </g>
        </g>
    </g>
</svg>