<svg width="207" height="261" viewBox="0 0 207 261" fill="none" xmlns="http://www.w3.org/2000/svg"><defs/><path d="M196.105 169.681l-9.76-21.082-.91-8.199-.131-.911-.911-.391-.91-.39c.78-2.343 1.301-5.336.13-7.808-1.041-2.343-3.254-3.905-6.507-4.555-.26-.781-.781-1.692-1.822-2.473-.13-.13-.26-.26-.52-.39 1.952-14.967-.911-22.905-1.692-24.857.26-16.268-1.822-30.843-6.116-43.077-2.993-8.589-6.246-13.274-7.288-14.705-1.171-10.151-4.684-17.57-10.28-21.994-4.555-3.514-9.369-4.034-11.972-4.034h-.781c-4.164-2.994-9.369-4.555-15.485-4.555-9.63 0-18.349 4.034-20.301 4.945-8.719.39-16.267 3.774-22.643 10.151-4.164-1.041-12.623-3.254-16.657-6.247-.26-.26-.65-.39-1.04-.39-.391 0-.912.13-1.172.39-.65.52-.78 1.432-.39 2.213l9.63 18.09v.13l-.521 1.43c-1.171.651-2.733 2.083-3.384 4.816-1.691 1.692-4.034 4.555-6.116 8.72-6.246 12.363-6.376 27.85-5.205 38.651.13.78.13 1.562.26 2.473-1.561 1.691-5.465 6.507-8.719 14.315-3.383 7.678-6.897 20.172-5.465 36.83.13 1.561.26 2.993.52 4.555-.13.13-.26.39-.39.52h-.13c-3.904 0-6.767 1.171-8.589 3.644-3.383 4.685-.91 12.233-.78 12.493h-3.253l-.261 1.172-5.856 23.295-.52 2.212h3.903l-3.513 14.316h-3.904l-.26 1.171-7.158 28.761-.52 1.952h32.923l.26-1.171 2.863-11.583 3.384 11.062.91 2.863 1.823-2.342 6.116-7.809-1.822 7.028-.52 1.952H112.95c4.295 0 11.322 0 17.308-5.336 1.301 1.562 3.123 2.863 5.335 3.774 3.514 1.432 7.418 1.562 11.061 1.562h10.151c2.862 0 11.581 0 18.088-8.459 2.733-3.644 3.774-7.548 4.685-10.932l.26-.781 6.506-26.158h3.774l.261-1.171 5.725-23.686z" fill="white"/><path d="M170.6 125.043l2.082 1.432c2.863-18.089-1.302-26.288-1.302-26.288.781-40.604-13.273-57.522-13.273-57.522-3.253-27.59-21.992-24.727-21.992-24.727-14.054-11.192-34.876.13-34.876.13-25.115.651-32.663 27.72-32.663 27.72S50.228 56.85 55.303 97.324c0 0-19.52 19.521-13.534 56.48l2.473-.39 24.595-2.733 17.307-29.021 9.5-6.117 26.026-3.514 11.191 3.384 37.739 9.63z" fill="#F5CE3E"/><path d="M98.507 131.159l5.595-7.287 18.479 6.507.781-1.302c-2.082-2.863-3.774-6.247-4.425-10.021 0 0-12.102.521-20.17-2.602-6.897 3.123-15.616 8.849-20.3 19l10.15-5.466 9.89 1.171z" fill="#002D5D"/><path d="M194.414 169.941l-9.63-20.822-.911-8.459-3.383-1.302-4.815 3.644-5.726-2.212-5.726-1.171-7.157-.261-9.37-3.123-2.472-3.384 8.719-12.883c-1.302-1.172-2.473-2.343-3.644-3.514-12.102-13.405-15.355-33.706-15.355-33.706-5.856 13.404-11.712 20.692-16.267 24.726-6.246 5.336-10.41 4.815-10.41 4.815-7.288.651-13.534-2.733-16.527-4.815-1.301-.781-1.952-1.431-1.952-1.431 0 .39.13.911.26 1.431.39 1.041 1.171 2.082 2.082 2.993-8.979 5.336-14.965 14.186-18.739 21.994-2.732 5.726-4.424 10.932-5.205 14.055-3.253 1.432-5.856 3.124-5.856 3.124-3.253-3.514-10.54 1.821-10.54 1.821-9.76-3.383-11.192 2.083-11.192 2.083-14.054-.781-8.979 14.055-8.979 14.055.39 1.041.911 1.692 1.301 2.212h-4.945l-5.856 23.295h3.904l-4.294 17.439h-3.904l-7.157 28.761h29.8l4.294-16.918 5.075 16.397 10.671-13.534-3.643 14.055h56.086c4.165 0 11.062 0 16.657-5.336l.911-.911c1.301 2.083 3.123 3.644 5.726 4.685 3.253 1.302 6.897 1.432 10.541 1.432h10.15c2.733 0 10.801 0 16.787-7.939 2.602-3.383 3.513-7.027 4.424-10.411l.261-.781 6.636-26.939h3.774l5.596-23.165zm-95.777-53.357c8.198 3.123 20.17 2.603 20.17 2.603.651 3.904 2.343 7.157 4.425 10.021l-.781 1.301-18.479-6.507-5.465 7.158-10.02-1.172-10.15 5.466c4.684-10.021 13.533-15.877 20.3-18.87z" fill="#002D5D"/><path d="M161.1 172.415l-4.815 18.87h4.294l-4.424 17.699h-19.26c.13-.781.13-1.562.13-2.343 0-5.856-3.123-8.589-5.855-9.63-.521-.26-1.042-.39-1.562-.521h8.979l5.986-23.945h-30.06c-3.774.13-9.37.26-14.055 4.685l1.172-4.685H77.425l-17.828 22.774-6.246-22.774H29.667l-4.815 18.87h3.904l-5.465 21.863h-3.904l-6.117 24.597h25.506l5.726-22.775 6.116 19.782 14.184-17.96-5.205 20.953H113.081c4.034 0 10.281 0 15.226-4.685a19.256 19.256 0 002.993-3.904c.52 3.383 2.602 5.856 5.856 7.288 2.862 1.171 6.376 1.301 9.759 1.301h10.151c2.472 0 9.76 0 15.095-7.028 2.342-2.993 3.253-6.507 4.034-9.63l.26-.911 7.158-28.891h3.773l4.685-18.87H161.1v-.13zm-43.334 23.164h-2.342l1.041-4.294h2.212l-.911 4.294zm-6.767 18.22h2.212l-1.301 5.076h-2.212l1.301-5.076zm-23.423-.521l5.465-21.863h.78l-1.43 5.596v.26a22.188 22.188 0 00-.651 5.336c0 5.856 3.123 8.589 5.726 9.761.91.39 1.951.78 2.862.91H87.576z" fill="white"/><path d="M85.103 215.231l6.377-25.768h3.904l3.643-14.966h-20.56l-19.65 24.987-6.897-24.987H31.099l-3.774 14.966h3.904l-6.377 25.768h-3.904l-5.075 20.562h21.472l7.027-27.98 7.027 22.905 17.438-22.254-6.767 27.329h22.252l5.206-20.562h-4.425zM133.772 214.709c.781-3.513 1.302-5.596 1.302-7.938 0-8.85-7.938-8.98-13.144-9.11h-8.979l2.082-8.199h6.247l-1.302 5.076h16.918l4.945-20.042h-27.458c-3.904.13-9.24.26-13.664 4.945-2.603 2.733-3.383 5.727-4.294 8.72l-2.343 9.37c-.39 1.562-.65 3.253-.65 5.075 0 8.98 7.677 9.11 12.232 9.24h9.76l-2.212 8.98h-6.247l1.432-5.596H91.61l-5.075 20.562h26.547c4.034 0 9.499 0 13.793-4.164 1.952-1.822 3.904-5.206 4.555-8.069l2.212-8.72.13-.13zM162.662 174.366l-3.774 14.966h4.294l-7.808 31.364h-4.424l2.472-9.76-16.917-.131-1.822 6.768c-1.171 4.815-1.691 7.288-1.691 9.76 0 8.329 9.239 8.329 13.794 8.329h10.15c3.774 0 9.239-.651 13.533-6.247 2.083-2.732 2.863-5.856 3.644-8.979l.26-.781 7.548-30.323h3.774l3.644-14.966h-26.677z" fill="#002D5D"/><path d="M97.335 175.799l-2.992 12.233h-3.904l-7.158 28.631h4.425l-4.555 17.829h-19.26l7.939-31.884-19.91 25.247-7.678-25.247-7.938 31.884h-18.74l4.425-17.829h3.904l7.157-28.501h-3.903l3.123-12.233h18.609l7.417 26.679 20.951-26.679h18.088v-.13zM140.279 175.798l-4.295 17.308H121.8l1.301-5.075h-9.109l-2.733 10.932h10.671c5.466.13 11.842.26 11.842 7.678 0 2.212-.52 4.295-1.301 7.808l-2.212 8.59c-.781 2.863-2.603 5.856-4.295 7.418-4.034 3.774-9.109 3.774-12.883 3.774H88.356l4.425-17.699h14.184l-1.431 5.596h9.109l2.993-11.843h-11.322c-4.554-.13-11.06-.13-11.06-7.808 0-1.692.39-3.254.65-4.816l2.342-9.37c.781-2.863 1.692-5.596 4.034-8.068 4.034-4.295 8.849-4.425 12.753-4.425h25.246zM187.517 175.798l-2.993 12.233h-3.774l-7.808 31.364c-.781 3.123-1.562 6.507-3.644 9.24-3.904 5.206-8.979 5.726-12.492 5.726h-10.151c-6.116 0-12.362-.52-12.362-6.897 0-2.213.52-4.685 1.561-9.37l1.432-5.727h14.054l-2.472 9.761h7.287l8.589-34.227h-4.295l3.123-12.233h23.945v.13z" fill="#F5CE3E"/><path d="M98.507 131.16l5.595-7.287 18.479 6.507.781-1.302c-2.082-2.863-3.774-6.247-4.425-10.021 0 0-12.102.521-20.17-2.602-6.897 3.123-15.616 8.849-20.3 19l10.15-5.466 9.89 1.171z" fill="white"/><path d="M171.38 99.276c.781-40.604-13.273-57.522-13.273-57.522-2.993-27.59-21.862-24.857-21.862-24.857-13.924-11.062-34.876.13-34.876.13-25.115.781-32.663 27.85-32.663 27.85S50.358 55.94 55.433 96.413c0 0-19.52 19.521-13.534 56.48l2.473-.39s-7.938-28.891 11.451-52.316c1.692 3.774 7.678 5.205 7.678 5.205-4.424-4.164-5.335-10.15-5.335-10.15v-.13c-1.301-6.768-3.774-29.543 14.705-48.803 0 0 7.547-27.72 28.889-26.94 0 0 17.047-13.404 34.615-.65 0 0 17.698-2.603 17.958 28.37 0 0 17.698 21.344 14.315 55.831 0 0 4.034 1.822 2.082 21.343l2.082 1.431c2.732-18.35-1.432-26.418-1.432-26.418z" fill="#002D5D" stroke="#002D5D" stroke-width=".401" stroke-linecap="round" stroke-linejoin="round"/><path d="M73.391 32.253l-10.41-8.589 8.849 14.445-1.562 3.514-1.431 1.302-1.432 2.603v3.513l-.39 2.213-2.212 4.164.13 7.028 1.17 2.993.261 3.384-1.301 3.513.13 4.165 1.562 3.253 4.554 3.514 4.945 1.302 1.952 2.082 4.685 6.246 5.596 5.727 5.075 4.164 4.554 1.432 5.336-.781 5.986-3.254 8.068-17.178 5.205-11.713 4.425-5.986 1.561-21.473.13-4.555 1.172-6.377-1.172-5.987-1.171-4.685-.39-2.472-1.692-2.473-2.603.911-4.684 2.733-2.733 3.253-3.514-.26h-3.643l-4.425.781-3.383.39-2.473.39-7.938-.13-5.465 1.563-3.644 1.3-7.678 4.035z" fill="#F5CE3E"/><path d="M130.129 40.062v-.13c3.253-11.323-4.165-23.686-4.165-23.686-5.725 1.171-9.759 4.295-12.362 7.548-2.863-.52-8.589-1.171-16.006 1.171 0 0-9.24-2.082-16.267 2.864 0 0-14.574-2.864-20.69-7.288l9.89 18.48 1.561-.781-6.897-11.192c1.952 2.863 5.335 6.897 9.5 7.808 0 0 3.904-8.069 16.526-8.459 0 0-6.636 3.514-7.807 16.788 0 0 6.506-20.562 29.8-18.35-3.124 4.165-4.165 8.2-4.165 8.2l-3.253 4.294 8.198-3.514c3.514-15.747 11.842-16.398 11.842-16.398 7.548 17.049-1.821 28.37-1.821 28.37l-.261.261s10.411 11.973-5.205 27.46l-8.328 20.432c-4.815 14.706-17.178 7.808-17.178 7.808 10.931 2.473 13.013-4.815 13.013-4.815l2.863-16.658-8.719 1.562c-10.15 3.253-24.334 2.342-24.334 2.342l-.26.781C77.816 90.556 92 102.789 92 102.789c13.013 10.281 20.691-5.856 20.691-5.856l1.041-2.213c2.082-3.773 4.294-8.719 6.507-15.486 0 0 3.383-1.301 4.294-5.726-.13 0 14.965-8.33 5.596-33.446zM166.565 124.263s-3.383-5.857-9.499-3.905c0 0-10.281-9.37-13.924 2.863 0 0-4.685 13.925 9.89 16.008 0 0 2.993 2.602 8.718 1.431 0 0 4.685 2.863 8.199 1.302 0 0 5.726 5.466 10.41-.521 0 0 7.418-11.713-4.684-13.404 0 .13-.261-5.076-9.11-3.774z" fill="#002D5D" stroke="#002D5D" stroke-width=".401" stroke-linecap="round" stroke-linejoin="round"/><path d="M173.983 129.728c-1.692-5.336-7.938-4.034-7.938-4.034-7.938-6.507-9.63-1.692-9.63-1.692-7.417-8.459-10.541-1.952-10.541-1.952-6.636 13.014 6.507 13.404 6.507 13.404 4.815 4.165 11.061 3.124 11.061 3.124 1.692 2.472 8.199 2.212 8.199 2.212 4.294 3.384 6.766.52 6.766.52 8.719-10.02-4.424-11.582-4.424-11.582z" fill="#F5CE3E"/><path d="M154.723 121.92c3.644 3.905.521 10.151.521 10.151 3.514-5.466 1.952-9.109 1.952-9.109l-2.473-1.042zM163.833 123.742c4.684 4.295.911 12.233.911 12.233 5.855-7.287 2.212-11.062 2.212-11.062l-3.123-1.171zM172.031 125.694c4.424 4.164 1.822 10.541 1.822 10.541 4.945-7.808.39-9.24.39-9.24l-2.212-1.301z" fill="#002D5D" stroke="#002D5D" stroke-width=".401" stroke-linecap="round" stroke-linejoin="round"/><path d="M176.976 137.668c.52 2.342-1.562 4.164-1.562 4.164 3.384-.911 3.124-4.164 3.124-4.164s0-1.172-.781-1.302c-.13 0-1.041 0-.781 1.302zM170.73 134.934c.39 2.733-2.083 4.815-2.083 4.815 4.035-.911 3.904-4.685 3.904-4.685s0-1.301-.911-1.561c0 0-1.041-.13-.91 1.431zM161.75 131.681c.391 3.123-2.732 5.466-2.732 5.466 4.684-.781 4.684-5.206 4.684-5.206s.131-1.562-.91-1.952c.13 0-1.172-.13-1.042 1.692zM152.251 127.646c0 3.384-3.384 5.596-3.384 5.596 4.815-.52 5.336-5.075 5.336-5.075s.26-1.692-.651-2.082c0-.131-1.301-.391-1.301 1.561z" fill="#002D5D"/><path d="M100.719 138.448l4.424-6.116 6.767 4.424 8.719-1.952 6.637 3.774 6.636-.13 5.466 1.041 9.109 3.904 13.534 1.953 5.465 3.123-13.013-.911-21.081-2.212-4.425-2.603-7.027.65-13.403-4.424-7.808-.521z" fill="white"/><path d="M86.014 59.453s2.733-1.562 3.644-4.686c0 0 8.588-1.561 13.143-3.644l2.082 1.692-3.253.911s-10.28 8.72-15.616 5.727z" fill="#002D5D" stroke="#002D5D" stroke-width=".401" stroke-linecap="round" stroke-linejoin="round"/><path d="M95.904 54.898s-.65 2.473-2.993 3.644c0 0 3.253-.91 5.335-4.164l-2.342.52z" fill="white"/><path d="M73.652 56.46s.78 3.514-1.692 3.904c0 0-3.774.52-4.685-3.774l-2.472-1.692.78-1.431c0-.13 2.863 2.733 8.069 2.993z" fill="#002D5D"/><path d="M124.663 22.232s5.466 9.5-2.082 19.911c-.13 0 5.205-9.24 2.082-19.911z" fill="#002D5D" stroke="#002D5D" stroke-width=".401" stroke-linecap="round" stroke-linejoin="round"/><path d="M93.04 97.063l-1.17 2.083s-3.774-2.733-4.815-7.028c0-.13 4.424 5.076 5.986 4.945z" fill="white"/><path d="M96.555 93.16l1.17-.651c3.905-1.432 5.987 2.993 5.987 2.993-3.254 5.726-10.41 5.205-10.41 5.205-6.507-3.253-1.953-8.198-1.953-8.198s2.603-1.953 4.815.78l.39-.13z" fill="#F5CE3E" stroke="#002D5D" stroke-width=".539"/><path d="M93.431 100.316s.911-7.157 5.856-7.938h-3.513s-3.123 1.692-2.343 7.938z" fill="#002D5D"/><path d="M104.883 96.022l-1.171 1.952s-2.603-1.952-3.514-6.246c-.13 0 3.123 4.424 4.685 4.294z" fill="white" stroke="#002D5D" stroke-width=".401"/><path d="M101.63 83.138c-1.041 3.384 2.472 8.33 2.472 8.33-4.945-3.645-5.726-7.68-5.726-7.68s1.562-.13 2.733-.52l.521-.13zM84.452 84.7s-.39 1.822 1.952 4.164c0 0-.91-2.472.13-3.123l1.302.911.78-1.041 1.302.91.91-1.17 1.302.91.911-1.17s.78 1.821 3.514 3.253c0 0-2.733-4.815-.781-4.685L84.452 84.7z" fill="white"/><path d="M81.59 84.7l-3.904-.13s.78 4.295 8.328 9.37c.13 0-5.596-7.028-4.425-9.24z" fill="white" stroke="#002D5D" stroke-width=".477"/><path d="M72.09 58.673c-1.822-.39-1.562-1.692-1.562-1.692l1.302.39c.13 0 0 .52.26 1.302zM89.267 57.5s2.603-.39 2.863-2.082c0 0-.78.26-1.952.39 0 0 0 1.041-.91 1.692z" fill="white"/><path d="M69.617 72.987s-1.561-2.473 1.952-2.212c0 0 2.343.26 2.993.65 0 0 3.514-1.561 6.507-.52 0 0 1.952 1.04-.78 1.822 0 0-1.042-1.172-1.693-.26 0 0-.52.78.521 1.3 0 0-1.041 2.343-1.952 2.604 0 0-1.041.78-2.082.26 0 0-.52.65-1.301.52 0 0-1.692-.52-2.863-3.123-.26-.13.26-1.822-1.302-1.041zM73.782 77.673s1.561 4.294 4.815 6.637c0 0-1.953-3.644-1.562-7.158 0 0-.78.781-1.952.13 0 0-.26.521-1.301.39zM69.097 70.644s.52-.78 1.561-.52l.26-.39c2.083-3.645 2.473-9.11 2.473-9.11s-1.431 1.3-3.513.13c-.13-.13 1.17 4.034-.781 9.89zM85.103 60.494s1.822 1.301 4.945.65c0 0-5.205 3.124-7.808 9.761 0 0-.39-1.301-2.733-1.301 0-.13 3.123-6.898 5.596-9.11z" fill="#002D5D"/><path d="M78.206 84.44v-.391s-8.719-.52-11.321-5.986c-.911-.651-1.952-1.562-1.952-1.562s3.123.65 4.554 1.041l-.91-1.301s-.912-.26-2.213-.52c-.39-.391-1.822-1.563-1.822-1.563s.651.13 1.562.26c.91.13 1.822.391 3.123.781l-1.04-1.3-2.213-.652s-.781-.91-1.302-1.431c.911.13 3.124.78 3.904 1.171l-1.3-1.561s-.261-.13-1.042-.391c.13-1.301.39-2.733.911-4.164 0 0-5.465-13.795 1.171-14.706 3.904 1.431 6.116 1.04 6.116 1.04-4.684-1.17-6.116-3.253-6.636-4.554-.13-2.473.26-5.596 2.993-5.856 0 0 .91-3.514 1.431-4.165l-1.952-2.863-1.301.26 1.171 3.514-.91 2.603s-4.035 1.041-3.514 8.59c0 0-5.336 5.725-.26 15.616 0 0-.781 1.822-1.172 4.295 0 0-.52 3.253.26 6.116 1.041 3.514 4.945 7.548 11.842 8.59" fill="#002D5D"/><path d="M103.061 43.056s-2.082 4.555-12.623 8.719c0 0 5.986-.39 13.274-4.815 0 0 1.431-2.212-.651-3.904z" fill="#002D5D" stroke="#002D5D" stroke-width=".503" stroke-linecap="round" stroke-linejoin="round"/><path d="M41.379 154.455c5.205-5.075 10.931-1.431 10.931-1.431 6.377-4.295 10.28.13 10.28.13 7.028-8.85 12.363-1.562 12.363-1.562 10.8 15.877-8.329 15.487-8.329 15.487-5.855 3.383-12.362 1.301-12.362 1.301-2.342 2.473-10.41.521-10.41.521-8.85 3.383-10.15-1.041-10.15-1.041-5.857-13.665 7.677-13.405 7.677-13.405z" fill="#F5CE3E"/><path d="M64.672 150.551c-4.945 3.514-2.862 11.322-2.862 11.322-2.733-7.027-.39-10.02-.39-10.02l3.252-1.302zM54.392 151.202c-4.945 3.513-2.863 11.322-2.863 11.322-2.733-7.028-.39-10.021-.39-10.021l3.253-1.301zM43.721 152.113c-4.164 2.993-2.472 9.63-2.472 9.63-2.343-5.986-.39-8.459-.39-8.459l2.862-1.171zM35.653 155.106c-3.123 2.343-1.822 7.288-1.822 7.288-1.822-4.555-.26-6.507-.26-6.507l2.082-.781z" fill="#002D5D" stroke="#002D5D" stroke-width=".401" stroke-linecap="round" stroke-linejoin="round"/><path d="M37.345 162.783c-1.041 3.124 1.431 5.987 1.431 5.987-4.424-1.822-3.514-6.247-3.514-6.247s.26-1.562 1.302-1.692c.13.13 1.431.26.78 1.952zM46.324 161.352c-1.171 3.514 1.561 6.767 1.561 6.767-5.075-2.082-3.904-7.028-3.904-7.028s.26-1.691 1.562-1.821c0 0 1.562.13.78 2.082zM55.953 160.181c-1.43 3.905 1.822 7.679 1.822 7.679-5.725-2.343-4.424-7.939-4.424-7.939s.26-1.952 1.692-2.082c-.13 0 1.691.13.91 2.342zM66.104 158.359c-1.432 4.034 1.822 7.809 1.822 7.809-5.726-2.473-4.555-8.069-4.555-8.069s.26-1.952 1.692-2.082c.13 0 1.822.13 1.04 2.342zM88.747 64.918l-.39.65c5.855.261 9.63 1.172 12.102 2.474-6.897.13-12.493 2.212-12.493 2.212l-.78 1.301c4.944-1.952 10.41-2.472 15.094-2.342.391 0 4.295.13 4.295.13l-2.993 1.171h-.13c-7.678-.39-14.705 2.082-14.705 2.082l-.52.911c6.245-1.822 11.711-2.082 16.005-1.692.781 0 4.165.26 4.165.26l-4.295 1.563h-.13c-8.198-1.172-16.006 1.3-16.006 1.3l-.78 1.172c6.896-1.692 12.882-1.561 17.437-.91.26 0 4.294.52 4.294.52l-3.383.91-1.562.391c-.52 7.808-26.677 6.897-26.677 6.897 7.418 2.343 21.342-.65 27.978-2.212 2.213-.52 3.514-.91 3.514-.91 3.904-19.652-20.04-15.878-20.04-15.878z" fill="#002D5D"/></svg>